<svg xmlns="http://www.w3.org/2000/svg" xmlns:xlink="http://www.w3.org/1999/xlink" viewBox="0 0 638.49 638" xmlns:v="https://vecta.io/nano"><style><![CDATA[.Em{fill:none}]]></style><defs><clipPath id="A"><path d="M375.07 207.84h23.38v23.38h-23.38z" class="Em"/></clipPath><linearGradient id="B" x1="376.82" y1="219.606" x2="400.172" y2="219.606" gradientUnits="userSpaceOnUse"><stop offset="0" stop-color="#cb4b95"/><stop offset="1" stop-color="#e5308a"/></linearGradient><clipPath id="C"><path d="M363.37 196.15h11.69v11.69h-11.69z" class="Em"/></clipPath><linearGradient id="D" x1="364.885" y1="202.013" x2="376.561" y2="202.013" xlink:href="#B"/><clipPath id="E"><path d="M350.38 215.15h5.85V221h-5.85z" class="Em"/></clipPath><linearGradient id="F" x1="350.443" y1="218.071" x2="356.28" y2="218.071" xlink:href="#B"/><clipPath id="G"><path d="M386.76 173.5h11.69v11.69h-11.69z" class="Em"/></clipPath><linearGradient id="H" x1="387.767" y1="179.397" x2="399.443" y2="179.397" xlink:href="#B"/><clipPath id="I"><path d="M419.07 202h24.84v24.85h-24.84z" class="Em"/></clipPath><linearGradient id="J" x1="419.508" y1="214.523" x2="444.321" y2="214.523" xlink:href="#B"/><clipPath id="K"><path d="M393.49 191.77h17.54v17.54h-17.54z" class="Em"/></clipPath><linearGradient id="L" x1="394.66" y1="200.546" x2="412.174" y2="200.546" xlink:href="#B"/><clipPath id="M"><path d="M344.53 173.5h5.85v5.85h-5.85z" class="Em"/></clipPath><linearGradient id="N" x1="345.074" y1="176.39" x2="350.912" y2="176.39" xlink:href="#B"/><clipPath id="O"><path d="M408.11 142.81h5.85v5.85h-5.85z" class="Em"/></clipPath><linearGradient id="P" x1="408.171" y1="145.742" x2="414.009" y2="145.742" xlink:href="#B"/><clipPath id="Q"><path d="M360.45 124.54h5.85v5.85h-5.85z" class="Em"/></clipPath><linearGradient id="R" x1="361.016" y1="127.482" x2="366.854" y2="127.482" xlink:href="#B"/><clipPath id="S"><path d="M457.8 88h5.85v5.85h-5.85z" class="Em"/></clipPath><linearGradient id="T" x1="458.348" y1="90.923" x2="464.186" y2="90.923" xlink:href="#B"/><clipPath id="U"><path d="M447.57 130.39h5.85v5.85h-5.85z" class="Em"/></clipPath><linearGradient id="V" x1="448.125" y1="133.321" x2="453.963" y2="133.321" xlink:href="#B"/><clipPath id="W"><path d="M430.76 172.04h8.77v8.77h-8.77z" class="Em"/></clipPath><linearGradient id="X" x1="428.812" y1="176.385" x2="437.574" y2="176.385" xlink:href="#B"/><clipPath id="Y"><path d="M437.74 233.21h7.22v7.22h-7.22z" class="Em"/></clipPath><linearGradient id="Z" x1="439.605" y1="236.837" x2="446.812" y2="236.837" xlink:href="#B"/><clipPath id="a"><path d="M388.99 240.86h7.22v7.22h-7.22z" class="Em"/></clipPath><linearGradient id="b" x1="390.356" y1="244.495" x2="397.649" y2="244.495" xlink:href="#B"/><clipPath id="c"><path d="M400.46 268.15h3.61v3.61h-3.61z" class="Em"/></clipPath><linearGradient id="d" x1="400.924" y1="269.966" x2="404.57" y2="269.966" xlink:href="#B"/><clipPath id="e"><path d="M405.95 240.86h15.34v15.34h-15.34z" class="Em"/></clipPath><linearGradient id="f" x1="405.128" y1="248.52" x2="420.449" y2="248.52" xlink:href="#B"/><clipPath id="g"><path d="M298.63 399.4l-19.01 21.65 32.55-5.32-13.54-16.33" class="Em"/></clipPath><radialGradient id="h" cx="-403.19" cy="-105.65" fx="-403.19" fy="-105.65" r=".84" gradientTransform="translate(-32663.1 126118.93) rotate(90) scale(312.29)" gradientUnits="userSpaceOnUse"><stop offset="0" stop-color="#7c4292"/><stop offset=".41" stop-color="#ba378c"/><stop offset=".72" stop-color="#e5308a"/></radialGradient><clipPath id="i"><path d="M319.03 260.73c-23.6-23.78-54.7-35.67-93.29-35.68-38.39 0-69.99 12.86-94.78 38.59s-37.2 59.48-37.21 101.25c-.13 16.23 2.08 32.4 6.56 48l11.06-1.48 17.09-10.88-14.62-11.8 46.62-18-8.73 15 13-8.32c-.55-4.15-.82-8.34-.83-12.53a127.4 127.4 0 0 1 .84-14.61l-16.46 3.33 5.18-15.36 13 1.59c2.04-9.71 5.62-19.03 10.63-27.6l-2.52-.05L185 299.05l.38 1.91c10.38-10.87 24.96-16.31 43.73-16.33 9.38 0 17.59 1.53 24.63 4.58v-.93l.36 1.1a44.91 44.91 0 0 1 20.74 18.6c4.32 7.31 7.61 15.18 9.79 23.38l13.51-7.21L292 338.5l-6.54-4.11c1.64 6.99 2.67 14.11 3.08 21.28l28.76 17.93-7.79 8.87-19.2 2.56-2.51-3a112.65 112.65 0 0 1-.88 6l2-.27 22.57-3 21.31-2.85-12.16-7.58 42.17-48 24.47 48.33 64.44-8.61 69.74-9.32-3.09-4.57a77.38 77.38 0 0 0-13.09-8.11l8.59 12.68-23.75 2.91 1.34-16.19 6-2.85a126.01 126.01 0 0 0-22.9-6.19h-38.1l5.82 21.83-50.78 6.78-19.27-38.08 6.82 2.6c-3.67-3.83-5.51-9.19-5.52-16.06 0-1.52.05-3 .17-4.35l-28.16 27-3.88-15.74 32.64-15.54c2-9.8 8.14-15.52 18.43-17.15h28.3l.13-8.73 2.33 8.73h94.65l26.55-60.12H377.52c-27.93 3.74-47.43 15.45-58.49 35.12m-188.57 42.25l10.05 25.47-16.05 10.52-14.44-8.21-.56-28.2 21 .42zm-24.8 94.1l-7.93-8.75-.33-19.37 14.91-9.73 16.15 9.2-22.8 28.65zm34-29.45l-19-10.82 20-13.09 6 15.08-7 8.83zm23.87-8.28l-3.37 10.76-12-13.1 15.37 2.34zm.19-41.36l-12 7.83-4-10.19 17.61.36-1.61 2zm275.26 16.6l48.68 12.81-11.41 11.52-37.27-24.33zm-16.06-76.73l2 7.61-16.37 8.72 14.37-16.33z" class="Em"/></clipPath><radialGradient id="j" gradientTransform="translate(-32719.27 126078.11) rotate(90) scale(312.29)" xlink:href="#h"/><clipPath id="k"><path d="M538.34 429.61l5.89-2.9.24-7.56v-7.83c-.1-12.31-2.08-23.19-5.93-32.64l-5 .82 4.79 50.11" class="Em"/></clipPath><radialGradient id="l" gradientTransform="translate(-32601.21 125950.69) rotate(90) scale(312.29)" xlink:href="#h"/><clipPath id="m"><path d="M420.33 334.41h-23.24l23.11 8.82.13-8.82" class="Em"/></clipPath><radialGradient id="n" gradientTransform="translate(-32681.54 126021.95) rotate(90) scale(312.29)" xlink:href="#h"/><clipPath id="o"><path d="M496.66 385.54l.52-6.52-6.13 2.83-.38 4.67 5.99-.98" class="Em"/></clipPath><radialGradient id="p" gradientTransform="translate(-32627.72 125976.34) rotate(90) scale(312.29)" xlink:href="#h"/><linearGradient id="q" x1="494.012" y1="388.201" x2="494.012" y2="372.636" gradientUnits="userSpaceOnUse"><stop offset="0" stop-color="#38b5e8"/><stop offset="1" stop-color="#2e7fc2"/></linearGradient><clipPath id="r"><path d="M526.97 373.43l-.21.44 5.83-4.33-.24-2.54-2.25-3.13-7.32 3.37 4.19 6.19" class="Em"/></clipPath><radialGradient id="s" gradientTransform="translate(-32628.11 125949.37) rotate(90) scale(312.29)" xlink:href="#h"/><linearGradient id="t" x1="527.626" y1="380.891" x2="527.626" y2="365.326" xlink:href="#q"/><clipPath id="u"><path d="M533.55 379.5l-.96-9.96-5.83 4.33-3.41 7.3 10.2-1.67" class="Em"/></clipPath><radialGradient id="v" gradientTransform="translate(-32623.86 125950.04) rotate(90) scale(312.29)" xlink:href="#h"/><linearGradient id="w" x1="528.428" y1="379.897" x2="528.428" y2="369.968" xlink:href="#q"/><clipPath id="x"><path d="M515.01 398.97l-13-6.72-12.55 9.34-.2 2.46-1.83-.95-9.29 6.9c.6 2.44.89 4.95.87 7.47 0 15.66-6.75 24.7-20.24 27.13h-25.31l32.81 20.45 72.08-35.44-4.79-50.11-10.2 1.67-8.34 17.8" class="Em"/></clipPath><radialGradient id="y" gradientTransform="translate(-32603.22 125992.01) rotate(90) scale(312.29)" xlink:href="#h"/><linearGradient id="z" x1="485.948" y1="462.205" x2="485.948" y2="391.712" xlink:href="#q"/><clipPath id="AA"><path d="M431.57 444.6l-6.42 4.76 14.56 28.75 26.55-13.06-32.81-20.45h-1.88" class="Em"/></clipPath><radialGradient id="AB" gradientTransform="translate(-32587.33 126030.2) rotate(90) scale(312.29)" xlink:href="#h"/><linearGradient id="AC" x1="445.79" y1="477.484" x2="445.79" y2="442.607" xlink:href="#q"/><clipPath id="AD"><path d="M533.53 368.84l-1.18-1.84.24 2.54.94-.7" class="Em"/></clipPath><radialGradient id="AE" gradientTransform="translate(-32626.15 125946.99) rotate(90) scale(312.29)" xlink:href="#h"/><linearGradient id="AF" x1="534.724" y1="366.369" x2="534.724" y2="354.114" xlink:href="#q"/><clipPath id="AG"><path d="M521.46 356.73l-69.71 9.3-64.44 8.61 9.38 18.54h53.51l13.64-2.23-23.19-12 7.17-3.4 44.18-5.41-1 11.74 6.13-2.83 1.38-17 19.15-2.32 5.12 7.55 7.32-3.37c-1.59-2.08-3.3-4.06-5.14-5.92l-2.44.3-1.06-1.56m-90.76 23.45l2.16-8.12 9-1.11 3.95 2.05-15.11 7.18z" class="Em"/></clipPath><radialGradient id="AH" gradientTransform="translate(-32643.07 125997.74) rotate(90) scale(312.29)" xlink:href="#h"/><linearGradient id="AI" x1="458.583" y1="390.743" x2="458.583" y2="358.361" xlink:href="#q"/><clipPath id="AJ"><path d="M238.58 458.03l-1.22-13a77.39 77.39 0 0 1-8.2.44c-14.22 0-26.01-3.45-35.38-10.34l-77.69 12.68a139.19 139.19 0 0 0 12.5 16.78c19.61 22.59 45.75 35.64 78.42 39.14l23.45-26.64 8.16-19.06" class="Em"/></clipPath><radialGradient id="AK" gradientTransform="translate(-32654.73 126216.27) rotate(90) scale(312.29)" xlink:href="#h"/><linearGradient id="AL" x1="177.906" y1="533.305" x2="177.906" y2="435.974" xlink:href="#q"/><clipPath id="AM"><path d="M431.57 444.6h-8.83l2.41 4.76 6.42-4.76" class="Em"/></clipPath><radialGradient id="AN" gradientTransform="translate(-32602.14 126039.14) rotate(90) scale(312.29)" xlink:href="#h"/><linearGradient id="AO" x1="427.176" y1="449.727" x2="427.176" y2="434.019" xlink:href="#q"/><clipPath id="AP"><path d="M179.46 418.87a127.86 127.86 0 0 1-6.72-13.2l-20.51 5.15-43.77 23.32c2.27 4.7 4.8 9.27 7.6 13.67l77.69-12.71a53.19 53.19 0 0 1-14.29-16.23" class="Em"/></clipPath><radialGradient id="AQ" gradientTransform="translate(-32691.12 126222.57) rotate(90) scale(312.29)" xlink:href="#h"/><linearGradient id="AR" x1="151.006" y1="445.289" x2="151.006" y2="406.691" xlink:href="#q"/><clipPath id="AS"><path d="M279.62 421.05l-40.21 45.8 2.77 29.61 99.1-45.64-29.11-35.09-32.55 5.32" class="Em"/></clipPath><radialGradient id="AT" gradientTransform="translate(-32633.19 126135.18) rotate(90) scale(312.29)" xlink:href="#h"/><linearGradient id="AU" x1="290.355" y1="487.217" x2="290.355" y2="421.319" xlink:href="#q"/><clipPath id="AV"><path d="M338.69,444.6c6.3-11.13,11.01-23.08,14-35.51l-40.52,6.64,29.11,35.09,13.52-6.22h-16.11" class="Em"/></clipPath><radialGradient id="AW" gradientTransform="translate(-32639.3 126098.62) rotate(90) scale(312.29)" xlink:href="#h"/><linearGradient id="AX" x1="333.577" y1="450.61" x2="333.577" y2="410.282" xlink:href="#q"/><clipPath id="AY"><path d="M422.74 444.6H354.8l-13.52 6.22 31.23 37.65 52.64-39.11-2.41-4.76" class="Em"/></clipPath><radialGradient id="AZ" gradientTransform="translate(-32600.74 126074.47) rotate(90) scale(312.29)" xlink:href="#h"/><linearGradient id="Aa" x1="383.208" y1="488.187" x2="383.208" y2="430.68" xlink:href="#q"/><clipPath id="Ab"><path d="M239.46 466.85l-9 10.24-11.78 27.49 5.63.13 17.91-8.25-2.76-29.61" class="Em"/></clipPath><radialGradient id="Ac" gradientTransform="translate(-32629.18 126184.23) rotate(90) scale(312.29)" xlink:href="#h"/><linearGradient id="Ad" x1="230.522" y1="503.326" x2="230.522" y2="467.769" xlink:href="#q"/><clipPath id="Ae"><path d="M224.27,504.73h1.47c5.9,0,11.61-.26,17.14-.77l-.7-7.49-17.91,8.26" class="Em"/></clipPath><radialGradient id="Af" gradientTransform="translate(-32618.12 126186.18) rotate(90) scale(312.29)" xlink:href="#h"/><linearGradient id="Ag" x1="233.544" y1="529.693" x2="233.544" y2="496.328" xlink:href="#q"/><clipPath id="Ah"><path d="M372.51 488.47l-31.23-37.65-99.1 45.64.7 7.49c33.71-3.12 60.47-15.73 80.27-37.82 1.18-1.32 2.32-2.66 3.44-4l-18.48 42.89h35.95l9.43-2.4 19-14.13" class="Em"/></clipPath><radialGradient id="Ai" gradientTransform="translate(-32613.55 126129.55) rotate(90) scale(312.29)" xlink:href="#h"/><linearGradient id="Aj" x1="307.148" y1="515.238" x2="307.148" y2="457.732" xlink:href="#q"/><clipPath id="Ak"><path d="M511.07,492.99c13.53-8.48,22.94-21.04,28.25-37.69l-63,16,34.73,21.66" class="Em"/></clipPath><radialGradient id="Al" gradientTransform="translate(-32561.76 125991) rotate(90) scale(312.29)" xlink:href="#h"/><linearGradient id="Am" x1="507.858" y1="502.673" x2="507.858" y2="460.153" xlink:href="#q"/><clipPath id="An"><path d="M466.26 465.05l10.08 6.28 63-16 1.11-3.78-2.09-21.91-72.1 35.41" class="Em"/></clipPath><radialGradient id="Ao" gradientTransform="translate(-32579.11 125987.78) rotate(90) scale(312.29)" xlink:href="#h"/><linearGradient id="Ap" x1="503.358" y1="465.748" x2="503.358" y2="437.86" xlink:href="#q"/><clipPath id="Aq"><path d="M103.71,423.02c1.44,3.81,3.02,7.51,4.75,11.12l43.74-23.32-48.52,12.2" class="Em"/></clipPath><radialGradient id="Ar" gradientTransform="translate(-32700.31 126237.35) rotate(90) scale(312.29)" xlink:href="#h"/><linearGradient id="As" x1="128.001" y1="429.601" x2="128.001" y2="405.736" xlink:href="#q"/><clipPath id="At"><path d="M100.31 412.92l1.46 4.63 9.6-6.11-11.06 1.48" class="Em"/></clipPath><radialGradient id="Au" gradientTransform="translate(-32711.86 126250.24) rotate(90) scale(312.29)" xlink:href="#h"/><linearGradient id="Av" x1="105.836" y1="434.051" x2="105.836" y2="410.186" xlink:href="#q"/><clipPath id="Aw"><path d="M463.26 394.65l4.13-1.9-3.55-1.84-13.64 2.23h7.26c1.97.35 3.91.86 5.81 1.51" class="Em"/></clipPath><radialGradient id="Ax" gradientTransform="translate(-32630.49 126003.01) rotate(90) scale(312.29)" xlink:href="#h"/><linearGradient id="Ay" x1="458.704" y1="407.677" x2="458.704" y2="388.206" xlink:href="#q"/><clipPath id="Az"><path d="M502.02 392.25l-5.67-2.93.31-3.78-5.99.98-1.22 15.07 12.57-9.34" class="Em"/></clipPath><radialGradient id="BA" gradientTransform="translate(-32620.14 125977.58) rotate(90) scale(312.29)" xlink:href="#h"/><linearGradient id="BB" x1="495.984" y1="429.053" x2="495.984" y2="384.306" xlink:href="#q"/><clipPath id="BC"><path d="M467.39,392.73l-4.13,1.9c8,2.76,12.96,7.88,14.87,15.35l9.29-6.9-20-10.35" class="Em"/></clipPath><radialGradient id="BD" gradientTransform="translate(-32620.4 125993.57) rotate(90) scale(312.29)" xlink:href="#h"/><linearGradient id="BE" x1="475.577" y1="433.393" x2="475.577" y2="388.646" xlink:href="#q"/><clipPath id="BF"><path d="M207.01 503.73c3.79.41 7.67.69 11.63.83l11.82-27.47-23.45 26.64" class="Em"/></clipPath><radialGradient id="BG" gradientTransform="translate(-32628.78 126193.8) rotate(90) scale(312.29)" xlink:href="#h"/><linearGradient id="BH" x1="218.781" y1="512.353" x2="218.781" y2="479.282" xlink:href="#q"/><clipPath id="BI"><path d="M344.06 505h6.2l3.23-2.4-9.43 2.4" class="Em"/></clipPath><radialGradient id="BJ" gradientTransform="translate(-32584.81 126107.81) rotate(90) scale(312.29)" xlink:href="#h"/><linearGradient id="BK" x1="348.778" y1="517.458" x2="348.778" y2="504.674" xlink:href="#q"/><clipPath id="BL"><path d="M385.88 504.58l43.09-21.19-50.09 12.75 7 8.44" class="Em"/></clipPath><radialGradient id="BM" gradientTransform="translate(-32576.38 126067.63) rotate(90) scale(312.29)" xlink:href="#h"/><linearGradient id="BN" x1="403.876" y1="498.702" x2="403.876" y2="486.95" xlink:href="#q"/><clipPath id="BO"><path d="M362.84 326.27l-42.17 48.02 12.16 7.58 54.48-7.27-24.47-48.33" class="Em"/></clipPath><radialGradient id="BP" gradientTransform="translate(-32685.72 126063.96) rotate(90) scale(312.29)" xlink:href="#h"/><linearGradient id="BQ" x1="353.872" y1="380.459" x2="353.872" y2="327.538" xlink:href="#q"/><clipPath id="BR"><path d="M391.54,363.02l50.78-6.78-5.86-21.83h-16.13l-.14,8.82-23.1-8.82h-2c-7.1-.83-12.43-3.12-16-6.87l-6.82-2.6,19.27,38.08" class="Em"/></clipPath><radialGradient id="BS" gradientTransform="translate(-32678.3 126024.47) rotate(90) scale(312.29)" xlink:href="#h"/><linearGradient id="BT" x1="407.212" y1="362.493" x2="407.212" y2="280.71" xlink:href="#q"/><clipPath id="BU"><path d="M421.07 285.75h2.46l-2.33-8.73-.13 8.73" class="Em"/></clipPath><radialGradient id="BV" gradientTransform="translate(-32717.55 125996.54) rotate(90) scale(312.29)" xlink:href="#h"/><linearGradient id="BW" x1="422.572" y1="357.913" x2="422.572" y2="276.13" xlink:href="#q"/><clipPath id="BX"><path d="M356.52 387.46a126.77 126.77 0 0 0 21.52 5.68h18.65l-9.38-18.54-54.48 7.27 22.54 14.05 1.15-8.46" class="Em"/></clipPath><radialGradient id="BY" gradientTransform="translate(-32661.51 126064.92) rotate(90) scale(312.29)" xlink:href="#h"/><linearGradient id="BZ" x1="364.85" y1="408.93" x2="364.85" y2="375.91" xlink:href="#q"/><clipPath id="Ba"><path d="M274.79 421.84l4.83-.79 19-21.65-9.67-11.67-2 .27c-1.94 11.85-6 23.26-12 33.66l-.11.18" class="Em"/></clipPath><radialGradient id="Bb" gradientTransform="translate(-32669.3 126123.77) rotate(90) scale(312.29)" xlink:href="#h"/><linearGradient id="Bc" x1="286.748" y1="421.208" x2="286.748" y2="388.927" xlink:href="#q"/><clipPath id="Bd"><path d="M312.17,415.73l40.53-6.64c1.05-4.27,1.95-8.66,2.67-13.17l-22.54-14.05-21.31,2.86-12.89,14.68,13.54,16.32" class="Em"/></clipPath><radialGradient id="Be" gradientTransform="translate(-32662.5 126094.46) rotate(90) scale(312.29)" xlink:href="#h"/><linearGradient id="Bf" x1="326.848" y1="414.1" x2="326.848" y2="380.836" xlink:href="#q"/><clipPath id="Bg"><path d="M422.92 257.83l-14.34 16.33 16.37-8.72-2.03-7.61" class="Em"/></clipPath><radialGradient id="Bh" gradientTransform="translate(-32729.08 125996.94) rotate(90) scale(312.29)" xlink:href="#h"/><linearGradient id="Bi" x1="416.723" y1="273.531" x2="416.723" y2="260.553" xlink:href="#q"/><clipPath id="Bj"><path d="M311.52 384.72l-22.57 3.01 9.68 11.67 12.89-14.68" class="Em"/></clipPath><radialGradient id="Bk" gradientTransform="translate(-32674.44 126110.91) rotate(90) scale(312.29)" xlink:href="#h"/><linearGradient id="Bl" x1="300.262" y1="397.554" x2="300.262" y2="384.148" xlink:href="#q"/><clipPath id="Bm"><path d="M230.42 477.09l8.99-10.24-.83-8.82-8.16 19.06" class="Em"/></clipPath><radialGradient id="Bn" gradientTransform="translate(-32640.51 126176.1) rotate(90) scale(312.29)" xlink:href="#h"/><linearGradient id="Bo" x1="234.901" y1="476.091" x2="234.901" y2="459.165" xlink:href="#q"/><clipPath id="Bp"><path d="M253.8 288.28v.93l.37.17-.36-1.1" class="Em"/></clipPath><radialGradient id="Bq" gradientTransform="translate(-32759.08 126112.62) rotate(90) scale(312.29)" xlink:href="#h"/><linearGradient id="Br" x1="213.428" y1="288.858" x2="252.799" y2="288.858" xlink:href="#q"/><clipPath id="Bs"><path d="M345.58 334.18l28.16-27c.11-1.42.31-2.83.6-4.23l-32.64 15.54 3.88 15.74" class="Em"/></clipPath><radialGradient id="Bt" gradientTransform="translate(-32709.06 126051.41) rotate(90) scale(312.29)" xlink:href="#h"/><linearGradient id="Bu" x1="357.921" y1="301.434" x2="357.921" y2="341.273" xlink:href="#q"/><clipPath id="Bv"><path d="M292.06 338.5l6.14-14.35-13.51 7.21.78 3 6.59 4.11" class="Em"/></clipPath><radialGradient id="Bw" gradientTransform="translate(-32718.56 126100.26) rotate(90) scale(312.29)" xlink:href="#h"/><linearGradient id="Bx" x1="291.52" y1="336.08" x2="291.52" y2="323.345" xlink:href="#q"/><clipPath id="By"><path d="M237.36 445l1.22 13 6.11-14.27a60.63 60.63 0 0 1-7.33 1.24" class="Em"/></clipPath><radialGradient id="Bz" gradientTransform="translate(-32650.15 126167.54) rotate(90) scale(312.29)" xlink:href="#h"/><linearGradient id="CA" x1="240.992" y1="457.016" x2="240.992" y2="427.322" xlink:href="#q"/><clipPath id="CB"><path d="M274.79 421.84c-6.84 11.56-16.87 18.87-30.1 21.92l-6.11 14.27.83 8.82 40.21-45.8-4.83.79" class="Em"/></clipPath><radialGradient id="CC" gradientTransform="translate(-32650.02 126153.24) rotate(90) scale(312.29)" xlink:href="#h"/><linearGradient id="CD" x1="258.929" y1="460.751" x2="258.929" y2="423.068" xlink:href="#q"/><clipPath id="CE"><path d="M287.81 382.01l2.51 3 19.2-2.56 7.79-8.87-28.76-17.93.29 9.22c.02 5.72-.31 11.44-1 17.12" class="Em"/></clipPath><radialGradient id="CF" gradientTransform="translate(-32688.5 126103.68) rotate(90) scale(312.29)" xlink:href="#h"/><linearGradient id="CG" x1="302.475" y1="383.861" x2="302.475" y2="351.463" xlink:href="#q"/><clipPath id="CH"><path d="M124.44 338.94l16.11-10.52-10.06-25.47-21-.43.53 28.2 14.42 8.22" class="Em"/></clipPath><radialGradient id="CI" gradientTransform="translate(-32770.87 126211.67) rotate(90) scale(312.29)" xlink:href="#h"/><linearGradient id="CJ" x1="109.99" y1="320.821" x2="140.558" y2="320.821" xlink:href="#q"/><clipPath id="CK"><path d="M151.78 325.79l12-7.83 1.59-2-17.61-.36 4.02 10.19" class="Em"/></clipPath><radialGradient id="CL" gradientTransform="translate(-32762.25 126190.1) rotate(90) scale(312.29)" xlink:href="#h"/><linearGradient id="CM" x1="148.768" y1="320.612" x2="166.24" y2="320.612" xlink:href="#q"/><clipPath id="CN"><path d="M185.46 300.96l-.38-1.91-10.46 13.13 2.52.05 2.46-4a52.43 52.43 0 0 1 5.83-7.3" class="Em"/></clipPath><radialGradient id="CO" gradientTransform="translate(-32766.12 126170.09) rotate(90) scale(312.29)" xlink:href="#h"/><linearGradient id="CP" x1="171.857" y1="305.615" x2="184.323" y2="305.615" xlink:href="#q"/><clipPath id="CQ"><path d="M153.46 338.24l-5.16 15.37 16.46-3.33c.41-3.58.98-7.06 1.72-10.45l-13-1.59" class="Em"/></clipPath><radialGradient id="CR" gradientTransform="translate(-32744.66 126196.49) rotate(90) scale(312.29)" xlink:href="#h"/><linearGradient id="CS" x1="157.352" y1="338.543" x2="157.352" y2="377.914" xlink:href="#q"/><clipPath id="CT"><path d="M160.46 370.73l-46.61 17.95 14.65 11.85 23.23-14.79 8.73-15.01" class="Em"/></clipPath><radialGradient id="CU" gradientTransform="translate(-32723.12 126220.95) rotate(90) scale(312.29)" xlink:href="#h"/><linearGradient id="CV" x1="136.986" y1="409.829" x2="136.986" y2="374.096" xlink:href="#q"/><clipPath id="CW"><path d="M97.4 368.93l.37 19.37 7.93 8.75 22.75-28.65-16.14-9.2-14.91 9.73" class="Em"/></clipPath><radialGradient id="CX" gradientTransform="translate(-32734.78 126235.59) rotate(90) scale(312.29)" xlink:href="#h"/><linearGradient id="CY" x1="96.674" y1="378.059" x2="129.072" y2="378.059" xlink:href="#q"/><clipPath id="CZ"><path d="M120.75 356.78l18.97 10.82 7.01-8.83-5.95-15.08-20.03 13.09" class="Em"/></clipPath><radialGradient id="Ca" gradientTransform="translate(-32744.59 126215.15) rotate(90) scale(312.29)" xlink:href="#h"/><linearGradient id="Cb" x1="120.895" y1="355.508" x2="146.54" y2="355.508" xlink:href="#q"/><clipPath id="Cc"><path d="M128.5 400.53l-17.13 10.91 26.3-3.51-9.17-7.4" class="Em"/></clipPath><radialGradient id="Cd" gradientTransform="translate(-32712.57 126235.19) rotate(90) scale(312.29)" xlink:href="#h"/><linearGradient id="Ce" x1="124.677" y1="475.644" x2="124.677" y2="375.213" xlink:href="#q"/><clipPath id="Cf"><path d="M164.34,404.37l7.44-1c-3.46-8.32-5.81-17.07-7-26l-13,8.32-12.86,22.04,25.42-3.39" class="Em"/></clipPath><radialGradient id="Cg" gradientTransform="translate(-32713.39 126210.41) rotate(90) scale(312.29)" xlink:href="#h"/><linearGradient id="Ch" x1="154.904" y1="435.474" x2="154.904" y2="335.043" xlink:href="#q"/><clipPath id="Ci"><path d="M164.34 404.37l-12.11 6.45 20.51-5.15-1-2.29-7.44 1" class="Em"/></clipPath><radialGradient id="Cj" gradientTransform="translate(-32701.51 126209.46) rotate(90) scale(312.29)" xlink:href="#h"/><linearGradient id="Ck" x1="162.345" y1="442.489" x2="162.345" y2="403.891" xlink:href="#q"/><linearGradient id="Cl" x1="162.916" y1="439.624" x2="162.916" y2="339.193" xlink:href="#q"/><clipPath id="Cm"><path d="M164.34 404.37l-25.42 3.36-.47.8-.78-.63-26.3 3.51-9.6 6.11 1.94 5.47 48.52-12.2 12.11-6.45" class="Em"/></clipPath><radialGradient id="Cn" gradientTransform="translate(-32704.9 126231.55) rotate(90) scale(312.29)" xlink:href="#h"/><linearGradient id="Co" x1="133.103" y1="428.351" x2="133.103" y2="404.486" xlink:href="#q"/><linearGradient id="Cp" x1="132.581" y1="473.304" x2="132.581" y2="372.873" xlink:href="#q"/><clipPath id="Cq"><path d="M138.92 407.76l12.81-22.02-23.23 14.79 9.17 7.4 1.25-.17" class="Em"/></clipPath><radialGradient id="Cr" gradientTransform="translate(-32714.59 126222.05) rotate(90) scale(312.29)" xlink:href="#h"/><linearGradient id="Cs" x1="140.086" y1="409.589" x2="140.086" y2="373.856" xlink:href="#q"/><linearGradient id="Ct" x1="140.464" y1="453.524" x2="140.464" y2="353.093" xlink:href="#q"/><clipPath id="Cu"><path d="M138.45 408.56l.47-.8-1.25.17.78.63" class="Em"/></clipPath><radialGradient id="Cv" gradientTransform="translate(-32706.45 126227.65) rotate(90) scale(312.29)" xlink:href="#h"/><linearGradient id="Cw" x1="138.17" y1="427.261" x2="138.17" y2="403.396" xlink:href="#q"/><linearGradient id="Cx" x1="138.266" y1="409.859" x2="138.266" y2="374.126" xlink:href="#q"/><linearGradient id="Cy" x1="138.891" y1="463.944" x2="138.891" y2="363.513" xlink:href="#q"/><clipPath id="Cz"><path d="M160.22 370.09l3.37-10.77-15.43-2.34 12.06 13.11" class="Em"/></clipPath><radialGradient id="DA" gradientTransform="translate(-32733.06 126202.29) rotate(90) scale(312.29)" xlink:href="#h"/><linearGradient id="DB" x1="162.472" y1="363.609" x2="149.738" y2="363.609" xlink:href="#q"/><clipPath id="DC"><path d="M515.13 382.51l11.63-8.64.21-.44-4.19-6.19-25.6 11.78-.52 6.52 18.47-3.03" class="Em"/></clipPath><radialGradient id="DD" gradientTransform="translate(-32657.27 126061.69) rotate(90) scale(312.53)" xlink:href="#h"/><linearGradient id="DE" x1="511.728" y1="384.341" x2="511.728" y2="368.776" xlink:href="#q"/><linearGradient id="DF" x1="511.932" y1="389.899" x2="511.932" y2="359.332" xlink:href="#q"/><clipPath id="DG"><path d="M523.35 381.17l3.41-7.3-11.63 8.64 8.22-1.34" class="Em"/></clipPath><radialGradient id="DH" gradientTransform="translate(-32624.15 125955.66) rotate(90) scale(312.29)" xlink:href="#h"/><linearGradient id="DI" x1="520.944" y1="381.547" x2="520.944" y2="371.618" xlink:href="#q"/><linearGradient id="DJ" x1="520.786" y1="382.529" x2="520.786" y2="351.962" xlink:href="#q"/><clipPath id="DK"><path d="M515.01 398.97l8.34-17.8-8.22 1.34-13.11 9.74 12.99 6.72" class="Em"/></clipPath><radialGradient id="DL" gradientTransform="translate(-32617.9 125965.04) rotate(90) scale(312.29)" xlink:href="#h"/><linearGradient id="DM" x1="512.495" y1="455.915" x2="512.495" y2="385.422" xlink:href="#q"/><linearGradient id="DN" x1="512.626" y1="397.959" x2="512.626" y2="367.392" xlink:href="#q"/><clipPath id="DO"><path d="M517.66 359.69l-19.1 2.34-1.38 16.99 25.6-11.78-5.12-7.55" class="Em"/></clipPath><radialGradient id="DP" gradientTransform="translate(-32633.04 125960.96) rotate(90) scale(312.29)" xlink:href="#h"/><linearGradient id="DQ" x1="509.888" y1="379.952" x2="509.888" y2="347.57" xlink:href="#q"/><linearGradient id="DR" x1="509.96" y1="387.089" x2="509.96" y2="356.522" xlink:href="#q"/><clipPath id="DS"><path d="M502.02 392.25l13.11-9.74-18.47 3.03-.31 3.78 5.67 2.93" class="Em"/></clipPath><radialGradient id="DT" gradientTransform="translate(-32622 125968.58) rotate(90) scale(312.29)" xlink:href="#h"/><linearGradient id="DU" x1="505.555" y1="426.843" x2="505.555" y2="382.096" xlink:href="#q"/><linearGradient id="DV" x1="505.622" y1="402.719" x2="505.622" y2="372.152" xlink:href="#q"/><clipPath id="DW"><path d="M490.67 386.52l.38-4.67-15.51 7.14 15.13-2.47" class="Em"/></clipPath><radialGradient id="DX" gradientTransform="translate(-32629.01 125984.01) rotate(90) scale(312.29)" xlink:href="#h"/><linearGradient id="DY" y1="390.461" x2="483.341" y2="374.896" xlink:href="#q" x1="483.341"/><linearGradient id="DZ" x1="483.374" y1="397.583" x2="483.374" y2="343.302" xlink:href="#q"/><clipPath id="Da"><path d="M489.25 404.05l.2-2.46-2.03 1.51 1.83.95" class="Em"/></clipPath><radialGradient id="Db" gradientTransform="translate(-32616.47 125984.12) rotate(90) scale(312.29)" xlink:href="#h"/><linearGradient id="Dc" x1="488.309" y1="461.095" x2="488.309" y2="390.602" xlink:href="#q"/><linearGradient id="Dd" x1="488.203" y1="404.153" x2="488.203" y2="349.872" xlink:href="#q"/><clipPath id="De"><path d="M491.05 381.85l.95-11.74-44.18 5.41-7.17 3.4 23.19 11.99 11.7-1.92 15.51-7.14" class="Em"/></clipPath><radialGradient id="Df" gradientTransform="translate(-32637.13 125994.12) rotate(90) scale(312.29)" xlink:href="#h"/><linearGradient id="Dg" x1="466.296" y1="389.253" x2="466.296" y2="356.871" xlink:href="#q"/><linearGradient id="Dh" x1="466.491" y1="410.263" x2="466.491" y2="355.982" xlink:href="#q"/><clipPath id="Di"><path d="M475.54 388.99l-11.7 1.92 3.55 1.83 8.15-3.75" class="Em"/></clipPath><radialGradient id="Dj" gradientTransform="translate(-32629.12 125994.61) rotate(90) scale(312.29)" xlink:href="#h"/><linearGradient id="Dk" x1="469.676" y1="405.387" x2="469.676" y2="385.916" xlink:href="#q"/><linearGradient id="Dl" x1="469.232" y1="412.443" x2="469.232" y2="357.994" xlink:href="#q"/><clipPath id="Dm"><path d="M489.45 401.59l1.22-15.07-15.13 2.47-8.15 3.75 20.03 10.36 2.03-1.51" class="Em"/></clipPath><radialGradient id="Dn" gradientTransform="translate(-32623.88 125989.26) rotate(90) scale(312.29)" xlink:href="#h"/><linearGradient id="Do" x1="478.797" y1="432.563" x2="478.797" y2="387.816" xlink:href="#q"/><linearGradient id="Dp" x1="478.809" y1="407.663" x2="478.809" y2="353.382" xlink:href="#q"/><clipPath id="Dq"><path d="M432.86 372.02l-2.16 8.12 15.15-7.18-3.95-2.04-9.04 1.1" class="Em"/></clipPath><radialGradient id="Dr" gradientTransform="translate(-32648.32 126011.75) rotate(90) scale(312.29)" xlink:href="#h"/><linearGradient id="Ds" x1="438.11" y1="395.042" x2="438.11" y2="362.66" xlink:href="#q"/><linearGradient id="Dt" x1="438.342" y1="379.988" x2="438.342" y2="367.531" xlink:href="#q"/><clipPath id="Du"><path d="M487.72 347.37l-48.68-12.81 37.27 24.33 11.41-11.52" class="Em"/></clipPath><radialGradient id="Dv" gradientTransform="translate(-32661.04 125987.01) rotate(90) scale(312.29)" xlink:href="#h"/><linearGradient id="Dw" x1="463.323" y1="364.581" x2="463.323" y2="325.211" xlink:href="#q"/><clipPath id="Dx"><path d="M523.4 356.43l-5-4.31 3.06 4.61 1.94-.26" class="Em"/></clipPath><radialGradient id="Dy" gradientTransform="translate(-32640.51 125949.15) rotate(90) scale(312.29)" xlink:href="#h"/><linearGradient id="Dz" x1="521.041" y1="374.135" x2="521.041" y2="341.737" xlink:href="#q"/><clipPath id="EA"><path d="M522.52 358.25l2.44-.3-1.56-1.52-1.94.3 1.06 1.56" class="Em"/></clipPath><radialGradient id="EB" gradientTransform="translate(-32637.7 125948.62) rotate(90) scale(312.29)" xlink:href="#h"/><linearGradient id="EC" x1="523.043" y1="376.813" x2="523.043" y2="344.431" xlink:href="#q"/><linearGradient id="ED" x1="523.251" y1="373.745" x2="523.251" y2="341.347" xlink:href="#q"/><clipPath id="EE"><path d="M490.12 359.61l23.75-2.88-8.59-12.69-7.85-3.41-6 2.85-1.31 16.16" class="Em"/></clipPath><radialGradient id="EF" gradientTransform="translate(-32648.21 125961.49) rotate(90) scale(312.29)" xlink:href="#h"/><linearGradient id="EG" x1="502.016" y1="364.246" x2="502.016" y2="338.601" xlink:href="#q"/><clipPath id="EH"><path d="M428.97 483.39l-43.09 21.19.34.42h67.11l-12.48-24.64-11.88 3.03" class="Em"/></clipPath><radialGradient id="EI" gradientTransform="translate(-32573.05 126056.49) rotate(90) scale(312.29)" xlink:href="#h"/><linearGradient id="EJ" x1="419.682" y1="512.995" x2="419.682" y2="483.796" xlink:href="#q"/><clipPath id="EK"><path d="M353.49 502.6l25.39-6.46-6.37-7.67-19.02 14.13" class="Em"/></clipPath><radialGradient id="EL" gradientTransform="translate(-32585.47 126094.04) rotate(90) scale(312.29)" xlink:href="#h"/><linearGradient id="EM" x1="366.158" y1="499.073" x2="366.158" y2="489.22" xlink:href="#q"/><clipPath id="EN"><path d="M440.85 480.36L453.33 505h21.73c14.18-1.84 26.18-5.84 36-12l-34.72-21.67-35.49 9" class="Em"/></clipPath><radialGradient id="EO" gradientTransform="translate(-32560.75 126016.75) rotate(90) scale(312.29)" xlink:href="#h"/><linearGradient id="EP" x1="475.832" y1="507.934" x2="475.832" y2="470.353" xlink:href="#q"/><clipPath id="EQ"><path d="M440.85 480.36l35.49-9.03-10.08-6.28-26.55 13.06 1.14 2.25" class="Em"/></clipPath><radialGradient id="ER" gradientTransform="translate(-32576.19 126024.89) rotate(90) scale(312.29)" xlink:href="#h"/><linearGradient id="ES" x1="458.061" y1="477.957" x2="458.061" y2="468.272" xlink:href="#q"/><clipPath id="ET"><path d="M428.97 483.39l11.88-3.03-1.14-2.25-10.74 5.28" class="Em"/></clipPath><radialGradient id="EU" gradientTransform="translate(-32576.38 126043.76) rotate(90) scale(312.29)" xlink:href="#h"/><linearGradient id="EV" x1="434.911" y1="483.935" x2="434.911" y2="481.003" xlink:href="#q"/><clipPath id="EW"><path d="M425.15 449.36l-52.64 39.11 6.37 7.67 50.09-12.75 10.74-5.28-14.56-28.75" class="Em"/></clipPath><radialGradient id="EX" gradientTransform="translate(-32590.36 126060.33) rotate(90) scale(312.29)" xlink:href="#h"/><linearGradient id="EY" x1="406.228" y1="490.258" x2="406.228" y2="454.163" xlink:href="#q"/><clipPath id="EZ"><path d="M540.46,451.52c2.14-8.11,3.41-16.43,3.8-24.81l-5.89,2.9,2.09,21.91" class="Em"/></clipPath><radialGradient id="Ea" gradientTransform="translate(-32576.59 125958.69) rotate(90) scale(312.29)" xlink:href="#h"/><linearGradient id="Eb" x1="541.139" y1="456.114" x2="541.139" y2="387.876" xlink:href="#q"/><clipPath id="Ec"><path d="M533.55 379.5l5-.82c-1.38-3.42-3.06-6.71-5-9.84l-.94.7 1 10" class="Em"/></clipPath><radialGradient id="Ed" gradientTransform="translate(-32623.13 125944.26) rotate(90) scale(312.29)" xlink:href="#h"/><linearGradient id="Ee" x1="535.456" y1="388.218" x2="535.456" y2="358.482" xlink:href="#q"/><clipPath id="Ef"><path d="M378.88 496.14l-25.39 6.46-3.23 2.4h34.76l.86-.42-7-8.44" class="Em"/></clipPath><radialGradient id="Eg" gradientTransform="translate(-32581.56 126094.08) rotate(90) scale(312.29)" xlink:href="#h"/><linearGradient id="Eh" x1="368.174" y1="513.534" x2="368.174" y2="496.6" xlink:href="#q"/><clipPath id="Ei"><path d="M385.02 505h1.2l-.34-.42-.86.42" class="Em"/></clipPath><radialGradient id="Ej" gradientTransform="translate(-32572.19 126085.65) rotate(90) scale(312.29)" xlink:href="#h"/><linearGradient id="Ek" x1="385.612" y1="517.384" x2="385.612" y2="506.641" xlink:href="#q"/></defs><g clip-path="url(#A)"><path d="M375.07 207.84h23.38v23.38h-23.38z" fill="url(#B)"/></g><g clip-path="url(#C)"><path d="M363.37 196.15h11.69v11.69h-11.69z" fill="url(#D)"/></g><g clip-path="url(#E)"><path d="M350.38 215.15h5.85V221h-5.85z" fill="url(#F)"/></g><g clip-path="url(#G)"><path d="M386.76 173.5h11.69v11.69h-11.69z" fill="url(#H)"/></g><g clip-path="url(#I)"><path d="M419.07 202h24.84v24.85h-24.84z" fill="url(#J)"/></g><g clip-path="url(#K)"><path d="M393.49 191.77h17.54v17.54h-17.54z" fill="url(#L)"/></g><g clip-path="url(#M)"><path d="M344.53 173.5h5.85v5.85h-5.85z" fill="url(#N)"/></g><g clip-path="url(#O)"><path d="M408.11 142.81h5.85v5.85h-5.85z" fill="url(#P)"/></g><g clip-path="url(#Q)"><path d="M360.45 124.54h5.85v5.85h-5.85z" fill="url(#R)"/></g><g clip-path="url(#S)"><path d="M457.8 88h5.85v5.85h-5.85z" fill="url(#T)"/></g><g clip-path="url(#U)"><path d="M447.57 130.39h5.85v5.85h-5.85z" fill="url(#V)"/></g><g clip-path="url(#W)"><path d="M430.76 172.04h8.77v8.77h-8.77z" fill="url(#X)"/></g><g clip-path="url(#Y)"><path d="M437.74 233.21h7.22v7.22h-7.22z" fill="url(#Z)"/></g><g clip-path="url(#a)"><path d="M388.99 240.86h7.22v7.22h-7.22z" fill="url(#b)"/></g><g clip-path="url(#c)"><path d="M400.46 268.15h3.61v3.61h-3.61z" fill="url(#d)"/></g><g clip-path="url(#e)"><path d="M405.95 240.86h15.34v15.34h-15.34z" fill="url(#f)"/></g><g clip-path="url(#g)"><path transform="matrix(.728371 -.685183 .685183 .728371 -200.72 314.17)" d="M276.62 391.2h38.55v38.08h-38.55z" fill="url(#h)"/></g><g clip-path="url(#i)"><path transform="matrix(.728371 -.685183 .685183 .728371 -131.86 305.39)" d="M90.65 96.08h457.19v445.84H90.65z" fill="url(#j)"/></g><g clip-path="url(#k)"><path transform="matrix(.728371 -.685183 .685183 .728371 -130.52 479.1)" d="M517.58 381.88h42.85v44.58h-42.85z" fill="url(#l)"/></g><g clip-path="url(#m)"><path transform="matrix(.728371 -.685183 .685183 .728371 -121.14 372.08)" d="M397.23 327.66h22.97V350h-22.97z" fill="url(#n)"/></g><g clip-path="url(#o)"><path transform="matrix(.728371 -.685183 .685183 .728371 -128.12 442.41)" d="M488.99 377.83h9.88v9.92h-9.88z" fill="url(#p)"/><path transform="matrix(.978148 -.207912 .207912 .978148 -68.79 111.06)" d="M489.96 378.43h7.93v8.68h-7.93z" fill="url(#q)"/></g><g clip-path="url(#r)"><path transform="matrix(.728371 -.685183 .685183 .728371 -109.42 461.76)" d="M520.68 361.88h14.01v14.01h-14.01z" fill="url(#s)"/><path transform="matrix(.978148 -.207912 .207912 .978148 -65.16 117.77)" d="M521.84 362.95h11.68v11.83h-11.68z" fill="url(#t)"/></g><g clip-path="url(#u)"><path transform="matrix(.728371 -.685183 .685183 .728371 -113.65 464.04)" d="M520.75 367.64h15.4v15.46h-15.4z" fill="url(#v)"/><path transform="matrix(.978148 -.207912 .207912 .978148 -66.49 118.07)" d="M522.25 368.6h12.4v13.5h-12.4z" fill="url(#w)"/></g><g clip-path="url(#x)"><path transform="matrix(.728371 -.685183 .685183 .728371 -157.36 447.63)" d="M418.39 355.19h135.02v134.18H418.39z" fill="url(#y)"/><path transform="matrix(.978148 -.207912 .207912 .978148 -77.18 110.25)" d="M425.7 369.53h120.38v105.49H425.7z" fill="url(#z)"/></g><g clip-path="url(#AA)"><path transform="matrix(.728371 -.685183 .685183 .728371 -195.05 430.71)" d="M419.26 435.08h52.9v52.58h-52.9z" fill="url(#AB)"/><path transform="matrix(.978148 -.207912 .207912 .978148 -86.18 102.75)" d="M422.12 440.68h47.18v41.33h-47.18z" fill="url(#AC)"/></g><g clip-path="url(#AD)"><path transform="matrix(.728371 -.685183 .685183 .728371 -107.58 465.2)" d="M531.65 366.95h2.6v2.66h-2.6z" fill="url(#AE)"/><path transform="matrix(.97782 -.209448 .209448 .97782 -65.22 120.14)" d="M533.54 366.52h1.68v2.74h-1.68z" fill="url(#AF)"/></g><g clip-path="url(#AG)"><path transform="matrix(.728371 -.685183 .685183 .728371 -132.3 416.14)" d="M394.22 312.73H523.2v124.39H394.22z" fill="url(#AH)"/><path transform="matrix(.978148 -.207912 .207912 .978148 -67.93 103.56)" d="M385.09 342.24h147.25v65.35H385.09z" fill="url(#AI)"/></g><g clip-path="url(#AJ)"><path transform="matrix(.728371 -.685183 .685183 .728371 -273.48 249.01)" d="M109.2 402.47h136.26V536.4H109.2z" fill="url(#AK)"/><path transform="matrix(.978148 -.207912 .207912 .978148 -93.72 47.13)" d="M110.29 423.11h134.09v92.62H110.29z" fill="url(#AL)"/></g><g clip-path="url(#AM)"><path transform="matrix(.728371 -.685183 .685183 .728371 -190.25 414.1)" d="M422.31 442.24H432v9.52h-9.69z" fill="url(#AN)"/><path transform="matrix(.978148 -.207912 .207912 .978148 -83.6 98.58)" d="M422.35 443.72h9.62v6.49h-9.62z" fill="url(#AO)"/></g><g clip-path="url(#AP)"><path transform="matrix(.728371 -.685183 .685183 .728371 -251.35 219.47)" d="M105.63 382.17h91v89.14h-91z" fill="url(#AQ)"/><path transform="matrix(.978148 -.207912 .207912 .978148 -85.42 40.75)" d="M105.04 397.25h92.19v58.95h-92.19z" fill="url(#AR)"/></g><g clip-path="url(#AS)"><path transform="matrix(.728371 -.685183 .685183 .728371 -233.65 322.83)" d="M225.59 391.8h129.52v128.61H225.59z" fill="url(#AT)"/><path transform="matrix(.978148 -.207912 .207912 .978148 -88.48 70.33)" d="M232.13 406.02h116.43v100.15H232.13z" fill="url(#AU)"/></g><g clip-path="url(#AV)"><path transform="matrix(.728371 -.685183 .685183 .728371 -204.03 345.29)" d="M303.66 400.17h59.64v59.6h-59.64z" fill="url(#AW)"/><path transform="matrix(.978148 -.207912 .207912 .978148 -82.11 78.73)" d="M308.3 405.12h50.37v49.68H308.3z" fill="url(#AX)"/></g><g clip-path="url(#AY)"><path transform="matrix(.728371 -.685183 .685183 .728371 -215.58 389.3)" d="M337.64 421.84h91.15v89.43h-91.15z" fill="url(#AZ)"/><path transform="matrix(.978148 -.207912 .207912 .978148 -88.62 89.87)" d="M337.64 436.35h91.16v60.36h-91.16z" fill="url(#Aa)"/></g><g clip-path="url(#Ab)"><path transform="matrix(.728371 -.685183 .685183 .728371 -270.28 289.83)" d="M208.86 463.95h43.09v43.7h-43.09z" fill="url(#Ac)"/><path transform="matrix(.978148 -.207912 .207912 .978148 -95.96 58.52)" d="M214.96 464.81h30.9v41.93h-30.9z" fill="url(#Ad)"/></g><g clip-path="url(#Ae)"><path transform="matrix(.728371 -.685183 .685183 .728371 -279.57 296.02)" d="M223.96 491.22h19.22v18.77h-19.22z" fill="url(#Af)"/><path transform="matrix(.978148 -.207912 .207912 .978148 -98.98 59.5)" d="M223.63 494.62h19.92v11.95h-19.92z" fill="url(#Ag)"/></g><g clip-path="url(#Ah)"><path transform="matrix(.728371 -.685183 .685183 .728371 -243.99 340.4)" d="M241.31 413.55h132.05v128.77H241.31z" fill="url(#Ai)"/><path transform="matrix(.978148 -.207912 .207912 .978148 -92.65 74.34)" d="M237.97 437.86h138.75v80.09H237.97z" fill="url(#Aj)"/></g><g clip-path="url(#Ak)"><path transform="matrix(.728371 -.685183 .685183 .728371 -186.95 476.75)" d="M471.98 438.86h71.7v70.61h-71.7z" fill="url(#Al)"/><path transform="matrix(.978148 -.207912 .207912 .978148 -87.48 115.95)" d="M473.11 449.16h69.44v49.96h-69.44z" fill="url(#Am)"/></g><g clip-path="url(#An)"><path transform="matrix(.728371 -.685183 .685183 .728371 -171.95 467.25)" d="M462.04 409.89h82.61v81.21h-82.61z" fill="url(#Ao)"/><path transform="matrix(.978148 -.207912 .207912 .978148 -82.66 114.5)" d="M462.74 422.36h81.22v56.23h-81.22z" fill="url(#Ap)"/></g><g clip-path="url(#Aq)"><path transform="matrix(.728371 -.685183 .685183 .728371 -254.73 202.44)" d="M102.3 397.38h51.32v50.24H102.3z" fill="url(#Ar)"/><path transform="matrix(.978148 -.207912 .207912 .978148 -85.04 35.84)" d="M101.81 406.03h52.31v32.9h-52.31z" fill="url(#As)"/></g><g clip-path="url(#At)"><path transform="matrix(.728371 -.685183 .685183 .728371 -255.26 185.1)" d="M99.7 408.49h12.24v12.02H99.7z" fill="url(#Au)"/><path transform="matrix(.978148 -.207912 .207912 .978148 -83.87 31.06)" d="M99.8 410.36h12.08v8.27H99.8z" fill="url(#Av)"/></g><g clip-path="url(#Aw)"><path transform="matrix(.728371 -.685183 .685183 .728371 -144.52 421.06)" d="M451.26 385.55h15.09v14.51h-15.09z" fill="url(#Ax)"/><path transform="matrix(.978148 -.207912 .207912 .978148 -71.64 103.97)" d="M449.99 389.16h17.6v7.23h-17.6z" fill="url(#Ay)"/></g><g clip-path="url(#Az)"><path transform="matrix(.728371 -.685183 .685183 .728371 -135.02 446.58)" d="M485.66 383.43h20.16v20.31h-20.16z" fill="url(#BA)"/><path transform="matrix(.978148 -.207912 .207912 .978148 -70.99 111.67)" d="M487.92 384.4h15.64v18.32h-15.64z" fill="url(#BB)"/></g><g clip-path="url(#BC)"><path transform="matrix(.728371 -.685183 .685183 .728371 -145.91 434.73)" d="M460.63 386.83h29.42v29.12h-29.42z" fill="url(#BD)"/><path transform="matrix(.978148 -.207912 .207912 .978148 -73.06 107.6)" d="M461.73 390.41h27.22v21.9h-27.22z" fill="url(#BE)"/></g><g clip-path="url(#BF)"><path transform="matrix(.728371 -.685183 .685183 .728371 -276.91 283.18)" d="M200.76 472.81h35.89v36.07h-35.89z" fill="url(#BG)"/><path transform="matrix(.978148 -.207912 .207912 .978148 -97.27 56.2)" d="M204.41 474.94h28.61v31.76h-28.61z" fill="url(#BH)"/></g><g clip-path="url(#BI)"><path transform="matrix(.728371 -.685183 .685183 .728371 -250.48 375.83)" d="M344.52 499.72h8.51v8.21h-8.51z" fill="url(#BJ)"/><path transform="matrix(.978148 -.207912 .207912 .978148 -97.12 83.53)" d="M343.93 501.65h9.72v4.31h-9.72z" fill="url(#BK)"/></g><g clip-path="url(#BL)"><path transform="matrix(.728371 -.685183 .685183 .728371 -228.77 410.95)" d="M378.42 469.12h51.01v49.76h-51.01z" fill="url(#BM)"/><path transform="matrix(.978148 -.207912 .207912 .978148 -93.88 94.78)" d="M377.22 478.41h53.41v31.15h-53.41z" fill="url(#BN)"/></g><g clip-path="url(#BO)"><path transform="matrix(.728371 -.685183 .685183 .728371 -146.46 338.72)" d="M310.67 311.01h86.63v86.16h-86.63z" fill="url(#BP)"/><path transform="matrix(.978148 -.207912 .207912 .978148 -65.88 81.34)" d="M315.62 319.95h76.74v68.24h-76.74z" fill="url(#BQ)"/></g><g clip-path="url(#BR)"><path transform="matrix(.728371 -.685183 .685183 .728371 -125.06 372.51)" d="M368.74 306.12h77.11v75.73h-77.11z" fill="url(#BS)"/><path transform="matrix(.978148 -.207912 .207912 .978148 -62.62 92.2)" d="M369.07 318.08h76.43v51.81h-76.43z" fill="url(#BT)"/></g><g clip-path="url(#BU)"><path transform="matrix(.728371 -.685183 .685183 .728371 -78.1 365.79)" d="M418.42 277.37h7.78v8.05h-7.78z" fill="url(#BV)"/><path transform="matrix(.978148 -.207912 .207912 .978148 -49.27 93.95)" d="M420.2 276.85h4.22v9.05h-4.22z" fill="url(#BW)"/></g><g clip-path="url(#BX)"><path transform="matrix(.728371 -.685183 .685183 .728371 -164.91 354.59)" d="M334.21 355.64h61.12v59.29h-61.12z" fill="url(#BY)"/><path transform="matrix(.978148 -.207912 .207912 .978148 -72.13 84.26)" d="M331.31 368.19h66.9v34.13h-66.9z" fill="url(#BZ)"/></g><g clip-path="url(#Ba)"><path transform="matrix(.728371 -.685183 .685183 .728371 -199.49 306.4)" d="M266.33 384.21h40.74v41.18h-40.74z" fill="url(#Bb)"/><path transform="matrix(.978148 -.207912 .207912 .978148 -77.89 68.46)" d="M271.5 385.62h30.41v38.32H271.5z" fill="url(#Bc)"/></g><g clip-path="url(#Bd)"><path transform="matrix(.728371 -.685183 .685183 .728371 -184.44 332.38)" d="M294.74 367.05h64.52v63.54h-64.52z" fill="url(#Be)"/><path transform="matrix(.978148 -.207912 .207912 .978148 -75.77 76.7)" d="M295.73 376.34h62.54v44.91h-62.54z" fill="url(#Bf)"/></g><g clip-path="url(#Bg)"><path transform="matrix(.728371 -.685183 .685183 .728371 -69.06 357.81)" d="M405.21 254.45h23.11v23.11h-23.11z" fill="url(#Bh)"/><path transform="matrix(.978148 -.207912 .207912 .978148 -46.2 92.46)" d="M407.06 256.31h19.4v19.37h-19.4z" fill="url(#Bi)"/></g><g clip-path="url(#Bj)"><path transform="matrix(.728371 -.685183 .685183 .728371 -187.09 312.22)" d="M286.99 378.99h26.5v26.16h-26.5z" fill="url(#Bk)"/><path transform="matrix(.978148 -.207912 .207912 .978148 -74.95 70.99)" d="M287.67 382.52h25.13v19.05h-25.13z" fill="url(#Bl)"/></g><g clip-path="url(#Bm)"><path transform="matrix(.728371 -.685183 .685183 .728371 -256.57 287.96)" d="M225.1 457.55h19.61v20.04H225.1z" fill="url(#Bn)"/><path transform="matrix(.978148 -.207912 .207912 .978148 -92.08 59.06)" d="M228.54 457.29h12.76v20.51h-12.76z" fill="url(#Bo)"/></g><g clip-path="url(#Bp)"><path transform="matrix(.728371 -.685183 .685183 .728371 -128.92 252.47)" d="M253.46 288.32h1.02v1.05h-1.02z" fill="url(#Bq)"/><path transform="matrix(.471166 -.882045 .882045 .471166 -120.44 376.76)" d="M253.41 288.4h1.14v.84h-1.14z" fill="url(#Br)"/></g><g clip-path="url(#Bs)"><path transform="matrix(.728371 -.685183 .685183 .728371 -121.02 331.84)" d="M335.42 295.98h45.2v45.14h-45.2z" fill="url(#Bt)"/><path transform="matrix(.038562 -.999256 .999256 .038562 25.91 664)" d="M341.75 301.62h32.52v33.82h-32.52z" fill="url(#Bu)"/></g><g clip-path="url(#Bv)"><path transform="matrix(.728371 -.685183 .685183 .728371 -147.86 289.7)" d="M281.61 321.49h19.67v19.71h-19.67z" fill="url(#Bw)"/><path transform="matrix(.978148 -.207912 .207912 .978148 -62.52 67.84)" d="M283.35 322.9h16.2v16.84h-16.2z" fill="url(#Bx)"/></g><g clip-path="url(#By)"><path transform="matrix(.728371 -.685183 .685183 .728371 -243.49 287.62)" d="M233.46 443.2h15.11v15.41h-15.11z" fill="url(#Bz)"/><path transform="matrix(.978148 -.207912 .207912 .978148 -88.48 59.97)" d="M235.96 443.16h10.14v15.48h-10.14z" fill="url(#CA)"/></g><g clip-path="url(#CB)"><path transform="matrix(.728371 -.685183 .685183 .728371 -233.82 298.13)" d="M228.47 413.23h61.26v61.47h-61.26z" fill="url(#CC)"/><path transform="matrix(.978148 -.207912 .207912 .978148 -86.64 63.57)" d="M234.27 417.29h49.66v53.32h-49.66z" fill="url(#CD)"/></g><g clip-path="url(#CE)"><path transform="matrix(.728371 -.685183 .685183 .728371 -171.58 307.91)" d="M281.76 349.56h41.6v41.59h-41.6z" fill="url(#CF)"/><path transform="matrix(.978148 -.207912 .207912 .978148 -70.39 71)" d="M285.08 352.92h34.95v34.85h-34.95z" fill="url(#CG)"/></g><g clip-path="url(#CH)"><path transform="matrix(.728371 -.685183 .685183 .728371 -185.81 172.78)" d="M101.22 296.83h47.58v47.81h-47.58z" fill="url(#CI)"/><path transform="matrix(.99543 -.095498 .095498 .99543 -30.06 13.4)" d="M107.81 301.12h34.4v39.22h-34.4z" fill="url(#CJ)"/></g><g clip-path="url(#CK)"><path transform="matrix(.728371 -.685183 .685183 .728371 -177.21 194.38)" d="M146.65 310.95h19.81v19.49h-19.81z" fill="url(#CL)"/><path transform="matrix(.99543 -.095498 .095498 .99543 -29.91 16.42)" d="M147.3 314.78h18.5v11.83h-18.5z" fill="url(#CM)"/></g><g clip-path="url(#CN)"><path transform="matrix(.728371 -.685183 .685183 .728371 -160.52 206.37)" d="M171.57 297.13h16.9v17.01h-16.9z" fill="url(#CO)"/><path transform="matrix(.99543 -.095498 .095498 .99543 -28.37 18.59)" d="M174.01 298.56h12.02v14.15h-12.02z" fill="url(#CP)"/></g><g clip-path="url(#CQ)"><path transform="matrix(.728371 -.685183 .685183 .728371 -194.28 201.82)" d="M145.52 334.11h23.77v23.65h-23.77z" fill="url(#CR)"/><path transform="matrix(.568275 -.822839 .822839 .568275 -216.68 278.88)" d="M145.93 334.08h22.97v23.69h-22.97z" fill="url(#CS)"/></g><g clip-path="url(#CT)"><path transform="matrix(.728371 -.685183 .685183 .728371 -226.97 198.71)" d="M109.96 358.8h54.37v53.65h-54.37z" fill="url(#CU)"/><path transform="matrix(.996195 -.087156 .087156 .996195 -33.09 13.42)" d="M112.6 368.75h49.04v33.75H112.6z" fill="url(#CV)"/></g><g clip-path="url(#CW)"><path transform="matrix(.728371 -.685183 .685183 .728371 -228.41 180.07)" d="M88.64 353.7h48.55v48.84H88.64z" fill="url(#CX)"/><path transform="matrix(.99543 -.095498 .095498 .99543 -35.59 12.51)" d="M95.65 357.8h34.52v40.64H95.65z" fill="url(#CY)"/></g><g clip-path="url(#CZ)"><path transform="matrix(.728371 -.685183 .685183 .728371 -207.36 188.23)" d="M116.08 338.03h35.31v35.22h-35.31z" fill="url(#Ca)"/><path transform="matrix(.99543 -.095498 .095498 .99543 -33.35 14.4)" d="M119.66 342.5h28.15v26.28h-28.15z" fill="url(#Cb)"/></g><g clip-path="url(#Cc)"><path transform="matrix(.728371 -.685183 .685183 .728371 -244.36 195.59)" d="M111.19 393.01h26.63v25.97h-26.63z" fill="url(#Cd)"/><path transform="matrix(.234633 -.972084 .972084 .234633 -299.36 431.77)" d="M116.12 391.92h16.78v28.13h-16.78z" fill="url(#Ce)"/></g><g clip-path="url(#Cf)"><path transform="matrix(.728371 -.685183 .685183 .728371 -226.81 213.08)" d="M132.98 370.3h44.72v44.61h-44.72z" fill="url(#Cg)"/><path transform="matrix(.234633 -.972084 .972084 .234633 -262.74 451.49)" d="M136.75 373.07h37.2v39.06h-37.2z" fill="url(#Ch)"/></g><g clip-path="url(#Ci)"><path transform="matrix(.728371 -.685183 .685183 .728371 -234.81 221.91)" d="M152.46 397.37h20.04v19.48h-20.04z" fill="url(#Cj)"/><path transform="matrix(.978148 -.207912 .207912 .978148 -81.09 42.68)" d="M151.68 401.32h21.61v11.55h-21.61z" fill="url(#Ck)"/><path transform="matrix(.234633 -.972084 .972084 .234633 -271.38 469.53)" d="M156.46 396.26h12.05v21.68h-12.05z" fill="url(#Cl)"/></g><g clip-path="url(#Cm)"><path transform="matrix(.728371 -.685183 .685183 .728371 -247.32 203.53)" d="M103.87 385.47h58.35v56.46h-58.35z" fill="url(#Cn)"/><path transform="matrix(.978148 -.207912 .207912 .978148 -83.1 36.71)" d="M100.52 398.07h65.08v31.25h-65.08z" fill="url(#Co)"/><path transform="matrix(.234633 -.972084 .972084 .234633 -300.31 445.97)" d="M116.65 381.1h32.81v65.2h-32.81z" fill="url(#Cp)"/></g><g clip-path="url(#Cq)"><path transform="matrix(.728371 -.685183 .685183 .728371 -233.85 203.79)" d="M124.05 380.8h32.12v32.08h-32.12z" fill="url(#Cr)"/><path transform="matrix(.996195 -.087156 .087156 .996195 -34.05 13.72)" d="M127.56 384.77h25.07v24.13h-25.07z" fill="url(#Cs)"/><path transform="matrix(.234633 -.972084 .972084 .234633 -278.52 439.93)" d="M126.6 382.95h27.02v27.78H126.6z" fill="url(#Ct)"/></g><g clip-path="url(#Cu)"><path transform="matrix(.728371 -.685183 .685183 .728371 -242.11 205.62)" d="M137.55 407.45h1.46v1.44h-1.46z" fill="url(#Cv)"/><path transform="matrix(.978148 -.207912 .207912 .978148 -81.84 37.67)" d="M137.6 407.64h1.39v1.04h-1.39z" fill="url(#Cw)"/><path transform="matrix(.996195 -.087156 .087156 .996195 -35.05 13.6)" d="M137.6 407.72h1.32v.91h-1.32z" fill="url(#Cx)"/><path transform="matrix(.234633 -.972084 .972084 .234633 -290.93 446.83)" d="M137.76 407.46h1.07v1.41h-1.07z" fill="url(#Cy)"/></g><g clip-path="url(#Cz)"><path transform="matrix(.728371 -.685183 .685183 .728371 -206.75 205.55)" d="M145.76 353.47h20.22v20.12h-20.22z" fill="url(#DA)"/><path transform="matrix(.894623 -.446822 .446822 .894623 -146.01 107.96)" d="M146.04 354.22h19.66v18.62h-19.66z" fill="url(#DB)"/></g><g clip-path="url(#DC)"><path transform="matrix(.728371 -.685183 .685183 .728371 -118.89 452.94)" d="M494.51 359.36h34.62v34.1h-34.62z" fill="url(#DD)"/><path transform="matrix(.978148 -.207912 .207912 .978148 -67.07 114.64)" d="M495.09 364.29h33.45v24.2h-33.45z" fill="url(#DE)"/><path transform="matrix(.353475 -.935444 .935444 .353475 -21.19 722.11)" d="M497.9 358.98h27.83v34.82H497.9z" fill="url(#DF)"/></g><g clip-path="url(#DG)"><path transform="matrix(.728371 -.685183 .685183 .728371 -117.64 459.68)" d="M513.76 371.08h14.4v14.27h-14.4z" fill="url(#DH)"/><path transform="matrix(.978148 -.207912 .207912 .978148 -67.25 116.58)" d="M514.36 372.76h13.18v10.87h-13.18z" fill="url(#DI)"/><path transform="matrix(.353475 -.935444 .935444 .353475 -16.98 731.84)" d="M514.85 371.23h12.2v13.94h-12.2z" fill="url(#DJ)"/></g><g clip-path="url(#DK)"><path transform="matrix(.728371 -.685183 .685183 .728371 -128.02 457.24)" d="M498.82 376.3h27.73v27.57h-27.73z" fill="url(#DL)"/><path transform="matrix(.978148 -.207912 .207912 .978148 -69.9 115.12)" d="M500.41 379.14h24.56v21.84h-24.56z" fill="url(#DM)"/><path transform="matrix(.353475 -.935444 .935444 .353475 -33.43 731.8)" d="M500.6 376.96h24.19v26.24H500.6z" fill="url(#DN)"/></g><g clip-path="url(#DO)"><path transform="matrix(.728371 -.685183 .685183 .728371 -114.56 449.77)" d="M494.04 353.56h31.89v31.62h-31.89z" fill="url(#DP)"/><path transform="matrix(.978148 -.207912 .207912 .978148 -65.65 114.1)" d="M495.45 357.24h29.05v24.23h-29.05z" fill="url(#DQ)"/><path transform="matrix(.353475 -.935444 .935444 .353475 -15.8 715.87)" d="M496.42 353.98h27.13v30.77h-27.13z" fill="url(#DR)"/></g><g clip-path="url(#DS)"><path transform="matrix(.728371 -.685183 .685183 .728371 -128.07 451.75)" d="M495.56 377.42h20.35v19.96h-20.35z" fill="url(#DT)"/><path transform="matrix(.978148 -.207912 .207912 .978148 -69.49 113.61)" d="M495.54 380.67h20.39v13.43h-20.39z" fill="url(#DU)"/><path transform="matrix(.353475 -.935444 .935444 .353475 -35.4 723.56)" d="M497.87 376.88h15.75v21.01h-15.75z" fill="url(#DV)"/></g><g clip-path="url(#DW)"><path transform="matrix(.728371 -.685183 .685183 .728371 -132.82 435.84)" d="M475.2 377.52h16.19v15.83H475.2z" fill="url(#DX)"/><path transform="matrix(.978148 -.207912 .207912 .978148 -69.57 108.9)" d="M474.96 380.31h16.66v10.21h-16.66z" fill="url(#DY)"/><path transform="matrix(.353475 -.935444 .935444 .353475 -48.08 701.3)" d="M477.22 376.91h12.17v17.04h-12.17z" fill="url(#DZ)"/></g><g clip-path="url(#Da)"><path transform="matrix(.728371 -.685183 .685183 .728371 -143.35 444.09)" d="M486.85 401.25h3.17v3.18h-3.17z" fill="url(#Db)"/><path transform="matrix(.978148 -.207912 .207912 .978148 -73.08 110.35)" d="M487.18 401.41h2.5v2.83h-2.5z" fill="url(#Dc)"/><path transform="matrix(.353475 -.935444 .935444 .353475 -61.04 717.36)" d="M486.93 401.46h3.02v2.77h-3.02z" fill="url(#Dd)"/></g><g clip-path="url(#De)"><path transform="matrix(.728371 -.685183 .685183 .728371 -134.06 422.88)" d="M440.5 355.36h51.65v50.33H440.5z" fill="url(#Df)"/><path transform="matrix(.978148 -.207912 .207912 .978148 -68.92 105.27)" d="M439.05 364.99h54.55v31.02h-54.55z" fill="url(#Dg)"/><path transform="matrix(.353475 -.935444 .935444 .353475 -54.46 682.25)" d="M447.54 352.83h37.6v55.39h-37.6z" fill="url(#Dh)"/></g><g clip-path="url(#Di)"><path transform="matrix(.728371 -.685183 .685183 .728371 -140.25 428)" d="M464.14 385.52h11.09v10.75h-11.09z" fill="url(#Dj)"/><path transform="matrix(.978148 -.207912 .207912 .978148 -71 106.19)" d="M463.57 387.82h12.23v6.1h-12.23z" fill="url(#Dk)"/><path transform="matrix(.348899 -.93716 .93716 .348899 -57.76 692.93)" d="M465.99 381.88h7.67v12.31h-7.67z" fill="url(#Dl)"/></g><g clip-path="url(#Dm)"><path transform="matrix(.728371 -.685183 .685183 .728371 -140.41 435.48)" d="M464.88 380.81h28.32v28.04h-28.32z" fill="url(#Dn)"/><path transform="matrix(.978148 -.207912 .207912 .978148 -71.62 108.22)" d="M465.92 384.28h26.22v21.07h-26.22z" fill="url(#Do)"/><path transform="matrix(.353475 -.935444 .935444 .353475 -59.61 703.38)" d="M467.17 381h23.75v27.64h-23.75z" fill="url(#Dp)"/></g><g clip-path="url(#Dq)"><path transform="matrix(.728371 -.685183 .685183 .728371 -138.27 402.31)" d="M429.6 367h17.35v17.1H429.6z" fill="url(#Dr)"/><path transform="matrix(.978148 -.207912 .207912 .978148 -68.5 99.33)" d="M429.9 369.44h16.74v12.17H429.9z" fill="url(#Ds)"/><path transform="matrix(.353475 -.935444 .935444 .353475 -67.93 652.77)" d="M431.28 366.82h13.98v17.43h-13.98z" fill="url(#Dt)"/></g><g clip-path="url(#Du)"><path transform="matrix(.728371 -.685183 .685183 .728371 -111.71 411.69)" d="M437.33 321.19h52.13v51.08h-52.13z" fill="url(#Dv)"/><path transform="matrix(.873007 -.487707 .487707 .873007 -110.24 270.02)" d="M436.2 324.21h54.37v44.98H436.2z" fill="url(#Dw)"/></g><g clip-path="url(#Dx)"><path transform="matrix(.728371 -.685183 .685183 .728371 -101.36 453.17)" d="M517.49 351.04h6.79v6.77h-6.79z" fill="url(#Dy)"/><path transform="matrix(.353475 -.935444 .935444 .353475 5.23 716.4)" d="M517.86 351.25h6.05v6.32h-6.05z" fill="url(#Dz)"/></g><g clip-path="url(#EA)"><path transform="matrix(.728371 -.685183 .685183 .728371 -102.74 455.57)" d="M521.32 355.5h3.8v3.73h-3.8z" fill="url(#EB)"/><path transform="matrix(.978148 -.207912 .207912 .978148 -62.86 116.59)" d="M521.31 356.07h3.8v2.51h-3.8z" fill="url(#EC)"/><path transform="matrix(.353475 -.935444 .935444 .353475 3.99 720.48)" d="M521.75 355.39h2.94v3.92h-2.94z" fill="url(#ED)"/></g><g clip-path="url(#EE)"><path transform="matrix(.728371 -.685183 .685183 .728371 -103.54 439.07)" d="M486.85 335.06h30.32v30.12h-30.32z" fill="url(#EF)"/><path transform="matrix(.353475 -.935444 .935444 .353475 -2.96 695.96)" d="M488.92 335.65h26.17v28.94h-26.17z" fill="url(#EG)"/></g><g clip-path="url(#EH)"><path transform="matrix(.728371 -.685183 .685183 .728371 -223.62 421.34)" d="M386.6 460.62h66.01v64.16H386.6z" fill="url(#EI)"/><path transform="matrix(.978148 -.207912 .207912 .978148 -93.26 98.01)" d="M384.05 473.62h71.1v38.12h-71.1z" fill="url(#EJ)"/></g><g clip-path="url(#EK)"><path transform="matrix(.728371 -.685183 .685183 .728371 -240.08 385.51)" d="M352.1 481.72h28.17v27.68H352.1z" fill="url(#EL)"/><path transform="matrix(.978148 -.207912 .207912 .978148 -95.03 86.96)" d="M352.3 485.99h27.76v19.1H352.3z" fill="url(#EM)"/></g><g clip-path="url(#EN)"><path transform="matrix(.728371 -.685183 .685183 .728371 -205.21 458.73)" d="M438.86 451.87h74.22v72.64h-74.22z" fill="url(#EO)"/><path transform="matrix(.978148 -.207912 .207912 .978148 -91.09 109.63)" d="M438.12 464.4h75.69v47.53h-75.69z" fill="url(#EP)"/></g><g clip-path="url(#EQ)"><path transform="matrix(.728371 -.685183 .685183 .728371 -199.5 442.23)" d="M439.43 454.6h37.17v36.25h-37.17z" fill="url(#ER)"/><path transform="matrix(.978148 -.207912 .207912 .978148 -88.27 105.56)" d="M438.52 461.4h39.01v22.59h-39.01z" fill="url(#ES)"/></g><g clip-path="url(#ET)"><path transform="matrix(.728371 -.685183 .685183 .728371 -211.28 428.58)" d="M428.78 474.77h12.27v11.99h-12.27z" fill="url(#EU)"/><path transform="matrix(.978148 -.207912 .207912 .978148 -90.45 100.93)" d="M428.55 476.92h12.72v7.63h-12.72z" fill="url(#EV)"/></g><g clip-path="url(#EW)"><path transform="matrix(.728371 -.685183 .685183 .728371 -213.63 406.68)" d="M365.61 432.71h81v80.12h-81z" fill="url(#EX)"/><path transform="matrix(.978148 -.207912 .207912 .978148 -89.41 94.77)" d="M368.38 442.88h75.45v59.73h-75.45z" fill="url(#EY)"/></g><g clip-path="url(#EZ)"><path transform="matrix(.728371 -.685183 .685183 .728371 -153.86 490.16)" d="M530.64 428.08h21.29v22.11h-21.29z" fill="url(#Ea)"/><path transform="matrix(.978148 -.207912 .207912 .978148 -79.47 122.13)" d="M535.82 426.37h10.92v25.5h-10.92z" fill="url(#Eb)"/></g><g clip-path="url(#Ec)"><path transform="matrix(.728371 -.685183 .685183 .728371 -110.91 468.61)" d="M529.76 368.27h11.63v11.84h-11.63z" fill="url(#Ed)"/><path transform="matrix(.978148 -.207912 .207912 .978148 -66.09 119.53)" d="M531.55 368.34h8.03V380h-8.03z" fill="url(#Ee)"/></g><g clip-path="url(#Ef)"><path transform="matrix(.728371 -.685183 .685183 .728371 -243.02 388.16)" d="M352.06 485.16h32.01v30.85h-32.01z" fill="url(#Eg)"/><path transform="matrix(.978148 -.207912 .207912 .978148 -96.03 87.47)" d="M349.73 492.54h36.68v16.07h-36.68z" fill="url(#Eh)"/></g><g clip-path="url(#Ei)"><path transform="matrix(.728371 -.685183 .685183 .728371 -241.14 401.34)" d="M385.04 504.25h1.16v1.13h-1.16z" fill="url(#Ej)"/><path transform="matrix(.978148 -.207912 .207912 .978148 -96.53 91.2)" d="M384.97 504.49h1.26v.66h-1.26z" fill="url(#Ek)"/></g></svg>