<?xml version="1.0" encoding="utf-8"?>
<!-- Generator: Adobe Illustrator 26.5.0, SVG Export Plug-In . SVG Version: 6.00 Build 0)  -->
<svg version="1.1" id="Lag_1" xmlns:serif="http://www.serif.com/"
	 xmlns="http://www.w3.org/2000/svg" xmlns:xlink="http://www.w3.org/1999/xlink" x="0px" y="0px" viewBox="0 0 456 456"
	 style="enable-background:new 0 0 456 456;" xml:space="preserve">
<style type="text/css">
	.st0{fill:url(#SVGID_1_);}
	.st1{fill:url(#SVGID_00000157279364745186097640000013223716783225238428_);}
	.st2{fill:url(#SVGID_00000181049242182764537190000011602367624155923852_);}
	.st3{fill:url(#SVGID_00000140737339769491736870000001361467128408850085_);}
</style>
<linearGradient id="SVGID_1_" gradientUnits="userSpaceOnUse" x1="60.8008" y1="333.5157" x2="294.168" y2="171.9611" gradientTransform="matrix(1 0 0 -1 0 458)">
	<stop  offset="0" style="stop-color:#00B5D4"/>
	<stop  offset="0.52" style="stop-color:#7E4292"/>
	<stop  offset="1" style="stop-color:#E8326D"/>
</linearGradient>
<path class="st0" d="M233.4,176.1c-72.5,77.1-95.7,8.6-147.7,9.6c-22.1,0.4-40.1,17.9-40.1,40.1s18,39.7,40.1,40.1
	c52,1,75.2-67.6,147.7,9.6c0,0,16.6,17.5,47,17.5c37.1,0,67.2-30.1,67.2-67.2s-30.1-67.2-67.2-67.2
	C250,158.5,233.4,176.1,233.4,176.1L233.4,176.1z"/>
<linearGradient id="SVGID_00000136397714925583922170000010797835735859776935_" gradientUnits="userSpaceOnUse" x1="360.9298" y1="119.9033" x2="116.4141" y2="429.1142" gradientTransform="matrix(1 0 0 -1 0 458)">
	<stop  offset="0" style="stop-color:#7E4292"/>
	<stop  offset="0.44" style="stop-color:#E8326D"/>
	<stop  offset="0.8" style="stop-color:#F28867"/>
	<stop  offset="1" style="stop-color:#F8B365"/>
</linearGradient>
<path style="fill:url(#SVGID_00000136397714925583922170000010797835735859776935_);" d="M390.1,303c-7.5-5.1-16.2-7.8-25.3-7.8
	c-10.3,0-20.5,3.5-28.8,10c-17.1,13.3-37.6,20.3-59.3,20.3c-1.8,0-3.5-0.1-5.3-0.1c-24-1.3-45.9-11.6-62.2-27.6
	c-17.3-16.8-28.3-39.9-29.3-65.3c-1.1-26.6,8.5-51.9,27-71.1c4.1-4.3,8.6-8.1,13.3-11.5c16.3-11.8,35.9-18.2,56.6-18.2
	c21.9,0,42.6,7.1,59.8,20.6c8,6.2,17.9,9.7,28,9.7c9.2,0,18-2.8,25.6-8c12-8.3,19.2-21.4,19.7-36c0.5-14.3-5.6-27.6-16.8-36.4
	C359.7,55,319.5,41,276.7,41c-66.5,0-124.8,34.2-158.1,86.2c-17.4,27.2-27.9,59.3-29.2,94v0.1c-0.1,3.3-0.1,6.8-0.1,10.4
	c0.8,49.4,20.7,95.7,55.9,130.4c35.3,34.7,82,53.9,131.5,53.9c42.6,0,82.7-13.9,116.1-40.2c11.3-8.9,17.5-22.4,17.1-36.8
	C409.4,324.4,402.2,311.4,390.1,303L390.1,303z M385.5,366.6c-31.3,24.7-68.9,37.7-108.8,37.7c-48.2,0-93.2-19.1-126.6-53.8
	c-14.5-15.1-26.1-32.4-34.3-51.1c-9.2-21-14.3-43.8-14.8-67.2c-0.1-3.8-0.1-7.2,0.1-10.4c1.6-44.5,19.5-84.4,47.8-114.3
	c32-33.8,77.4-54.8,127.8-54.8c40.1,0,77.8,13.1,109.1,38c8.2,6.5,12.7,16.3,12.3,26.8c-0.4,10.9-5.7,20.6-14.6,26.8
	c-5.6,3.9-12.2,5.9-19,5.9c-7.6,0-14.8-2.5-20.8-7.2c-19-14.9-42.8-23.1-67-23.1c-22.7,0-44.3,6.9-62.4,19.6
	c-5.7,4-11,8.6-15.9,13.7c-20.4,21.2-31.1,49-30.3,78.4l0,1.2c1,27,12.1,52.5,31.2,71.9c0.6,0.6,1.3,1.3,1.9,1.9
	c18.9,18.3,43.4,29,69.5,30.4c2,0.1,3.9,0.2,5.9,0.2c24.3,0,47.3-7.9,66.5-22.7c6.3-4.9,14-7.5,21.7-7.5c6.7,0,13.1,2,18.7,5.9
	c8.9,6.1,14.2,15.8,14.6,26.6C398.5,350,393.9,359.9,385.5,366.6L385.5,366.6z"/>
<linearGradient id="SVGID_00000101097917364690671490000007888074382696315800_" gradientUnits="userSpaceOnUse" x1="253.8609" y1="35.2325" x2="9.3453" y2="344.4435" gradientTransform="matrix(1 0 0 -1 0 458)">
	<stop  offset="0" style="stop-color:#7E4292"/>
	<stop  offset="0.44" style="stop-color:#E8326D"/>
	<stop  offset="0.8" style="stop-color:#F28867"/>
	<stop  offset="1" style="stop-color:#F8B365"/>
</linearGradient>
<path style="fill:url(#SVGID_00000101097917364690671490000007888074382696315800_);" d="M101,232.1c-0.1-3.8-0.1-7.2,0.1-10.4
	c0.4-11.3,1.9-22.4,4.3-33c-3.7-1.2-7.5-2-11.4-2.6c-2.6,11.3-4.2,23-4.6,35v0.1c-0.1,3.3-0.1,6.8-0.1,10.4
	c0.2,11.5,1.4,22.7,3.6,33.8c4-0.5,7.8-1.3,11.5-2.4C102.4,252.9,101.2,242.6,101,232.1L101,232.1z"/>
<linearGradient id="SVGID_00000149379184013938251410000007159688332099788966_" gradientUnits="userSpaceOnUse" x1="50.1808" y1="319.3041" x2="283.5402" y2="157.7416" gradientTransform="matrix(1 0 0 -1 0 458)">
	<stop  offset="0" style="stop-color:#00B5D4"/>
	<stop  offset="0.52" style="stop-color:#7E4292"/>
	<stop  offset="1" style="stop-color:#E8326D"/>
</linearGradient>
<path style="fill:url(#SVGID_00000149379184013938251410000007159688332099788966_);" d="M169.2,212.8c-0.9,6.2-1.3,12.5-1.1,18.8
	l0,1.2c0.1,2,0.2,4,0.4,5.9c3.8-0.1,7.8,0.3,11.9,1.2c-0.3-2.5-0.5-5-0.6-7.5c-0.3-7.1,0.2-14.1,1.4-21
	C177.1,212.4,173.1,212.8,169.2,212.8L169.2,212.8z"/>
</svg>
